<svg width="60" height="60" viewBox="0 0 60 60" fill="none" xmlns="http://www.w3.org/2000/svg">
<rect width="60" height="60" fill="#000000"/>
<path d="M7.5 10C7.5 8.61929 8.61929 7.5 10 7.5H25C26.3807 7.5 27.5 8.61929 27.5 10V25C27.5 26.3807 26.3807 27.5 25 27.5H10C8.61929 27.5 7.5 26.3807 7.5 25V10Z" fill="#F4F4F4"/>
<path d="M7.5 35C7.5 33.6193 8.61929 32.5 10 32.5H25C26.3807 32.5 27.5 33.6193 27.5 35V50C27.5 51.3807 26.3807 52.5 25 52.5H10C8.61929 52.5 7.5 51.3807 7.5 50V35Z" fill="#F4F4F4"/>
<path d="M32.5 10C32.5 8.61929 33.6193 7.5 35 7.5H50C51.3807 7.5 52.5 8.61929 52.5 10V25C52.5 26.3807 51.3807 27.5 50 27.5H35C33.6193 27.5 32.5 26.3807 32.5 25V10Z" fill="#F4F4F4"/>
<path fill-rule="evenodd" clip-rule="evenodd" d="M35.75 35.75V49.25H49.25V35.75H35.75ZM35 32.5C33.6193 32.5 32.5 33.6193 32.5 35V50C32.5 51.3807 33.6193 52.5 35 52.5H50C51.3807 52.5 52.5 51.3807 52.5 50V35C52.5 33.6193 51.3807 32.5 50 32.5H35Z" fill="#F4F4F4"/>
</svg>
